<?xml version="1.0" standalone="no"?>
<!DOCTYPE svg PUBLIC "-//W3C//DTD SVG 20010904//EN"
 "http://www.w3.org/TR/2001/REC-SVG-20010904/DTD/svg10.dtd">
<svg version="1.0" xmlns="http://www.w3.org/2000/svg"
 width="763.000000pt" height="196.000000pt" viewBox="0 0 763.000000 196.000000"
 preserveAspectRatio="xMidYMid meet">

<g transform="translate(0.000000,196.000000) scale(0.100000,-0.100000)"
fill="#000000" stroke="none">
<path d="M1370 1432 l0 -48 -92 -12 c-168 -21 -247 -83 -248 -195 0 -123 66
-173 248 -184 l92 -6 0 -70 0 -69 -32 6 c-43 8 -82 38 -86 65 -3 20 -8 21
-114 21 l-111 0 6 -40 c13 -98 100 -160 255 -182 l82 -11 0 -49 0 -48 50 0 50
0 0 49 0 48 61 7 c186 21 273 90 273 216 0 70 -23 114 -73 139 -43 22 -140 41
-213 41 l-48 0 0 66 0 67 32 -7 c42 -8 79 -33 85 -57 5 -17 16 -19 115 -19
l110 0 -7 33 c-24 112 -100 162 -277 183 l-58 6 0 49 0 49 -50 0 -50 0 0 -48z
m0 -253 l0 -72 -36 6 c-111 18 -112 101 -1 127 17 5 33 8 35 9 1 1 2 -31 2
-70z m186 -204 c31 -13 35 -18 32 -46 -3 -37 -36 -66 -85 -75 l-33 -6 0 64 c0
36 3 68 7 71 10 11 41 8 79 -8z"/>
<path d="M5480 1370 c-95 -17 -162 -51 -226 -114 -76 -76 -99 -135 -92 -237
15 -200 244 -339 496 -301 297 46 432 328 251 526 -98 108 -260 155 -429 126z
m210 -184 c45 -30 80 -90 80 -141 0 -129 -159 -216 -285 -155 -132 64 -134
243 -3 309 61 31 149 26 208 -13z"/>
<path d="M6340 1370 c-95 -17 -162 -51 -226 -114 -76 -76 -99 -135 -92 -237
15 -200 244 -339 496 -301 297 46 432 328 251 526 -98 108 -260 155 -429 126z
m210 -184 c45 -30 80 -90 80 -141 0 -129 -159 -216 -285 -155 -132 64 -134
243 -3 309 61 31 149 26 208 -13z"/>
<path d="M70 1050 l0 -320 105 0 105 0 0 143 1 142 72 -140 72 -140 97 -3 98
-3 69 138 70 138 0 -137 1 -138 105 0 105 0 0 320 0 320 -116 0 -115 0 -107
-221 -107 -220 -110 220 -110 221 -117 0 -118 0 0 -320z"/>
<path d="M1860 1050 l0 -320 105 0 105 0 0 192 0 193 193 -193 192 -192 108 0
107 0 0 320 0 320 -105 0 -105 0 0 -197 0 -198 -198 198 -197 197 -103 0 -102
0 0 -320z"/>
<path d="M2740 1050 l0 -320 340 0 340 0 0 75 0 75 -235 0 -235 0 0 50 0 50
195 0 195 0 0 75 0 75 -195 0 -195 0 0 45 0 45 235 0 235 0 0 75 0 75 -340 0
-340 0 0 -320z"/>
<path d="M3590 1188 l150 -183 0 -137 0 -138 115 0 115 0 0 133 0 133 150 183
c83 100 150 184 150 187 0 2 -48 4 -107 4 l-108 -1 -100 -119 c-75 -89 -103
-116 -111 -107 -6 7 -50 60 -98 120 l-87 107 -110 0 -109 0 150 -182z"/>
<path d="M4310 1051 l0 -321 278 0 c298 0 382 8 451 43 60 30 83 75 78 150 -3
46 -9 63 -32 87 -16 17 -46 36 -68 42 l-38 11 30 19 c31 20 61 81 61 126 -1
55 -34 107 -86 133 -48 24 -55 24 -361 27 l-313 3 0 -320z m532 172 c22 -20
23 -61 1 -85 -14 -16 -34 -18 -180 -18 l-163 0 0 60 0 60 162 0 c136 0 164 -3
180 -17z m36 -239 c15 -10 22 -25 22 -49 0 -59 -19 -65 -222 -65 l-178 0 0 65
0 65 178 0 c144 0 182 -3 200 -16z"/>
<path d="M6910 1050 l0 -320 105 0 105 0 0 133 1 132 127 -133 127 -132 130 0
130 0 -173 173 -173 173 152 135 c84 74 160 139 168 146 13 10 -10 12 -117 13
l-132 0 -120 -111 -120 -111 0 111 0 111 -105 0 -105 0 0 -320z"/>
</g>
</svg>
