<?xml version="1.0" standalone="no"?>
<!DOCTYPE svg PUBLIC "-//W3C//DTD SVG 20010904//EN"
 "http://www.w3.org/TR/2001/REC-SVG-20010904/DTD/svg10.dtd">
<svg version="1.0" xmlns="http://www.w3.org/2000/svg"
 width="1571.000000pt" height="500.000000pt" viewBox="0 0 1571.000000 500.000000"
 preserveAspectRatio="xMidYMid meet">

<g transform="translate(0.000000,500.000000) scale(0.100000,-0.100000)"
fill="#000000" stroke="none">
<path d="M3070 3360 l0 -100 -53 0 c-71 0 -209 -18 -282 -36 -149 -38 -265
-130 -301 -236 -22 -68 -22 -180 1 -248 49 -148 248 -230 563 -230 l72 0 0
-131 0 -131 -42 7 c-105 17 -188 80 -188 143 l0 22 -215 0 -215 0 4 -22 c3
-13 7 -42 11 -66 12 -93 89 -193 186 -243 104 -53 298 -99 417 -99 l42 0 0
-100 0 -100 100 0 100 0 0 99 0 98 88 6 c237 17 429 95 502 205 41 63 54 112
55 212 0 73 -4 93 -28 142 -61 125 -237 188 -524 188 l-93 0 0 125 c0 69 3
125 8 125 22 0 113 -30 149 -49 41 -20 73 -63 73 -96 0 -13 27 -15 211 -15
l211 0 -7 58 c-10 81 -50 164 -102 213 -88 81 -267 142 -450 155 l-93 7 0 98
0 99 -100 0 -100 0 0 -100z m0 -495 l0 -126 -37 6 c-131 22 -193 58 -193 114
0 43 8 58 44 81 34 21 125 48 164 49 22 1 22 -1 22 -124z m367 -376 c44 -17
63 -39 63 -76 0 -74 -48 -120 -155 -148 -33 -8 -63 -15 -67 -15 -4 0 -8 59 -8
131 l0 132 69 -7 c39 -3 82 -11 98 -17z"/>
<path d="M11063 3245 c-86 -15 -190 -49 -258 -83 -401 -198 -494 -649 -196
-942 89 -87 158 -130 281 -176 477 -180 1040 38 1135 437 46 195 -6 387 -145
532 -184 194 -512 287 -817 232z m282 -311 c162 -42 265 -164 265 -314 0 -242
-268 -395 -525 -299 -87 32 -177 124 -200 204 -22 74 -16 166 14 229 73 150
265 228 446 180z"/>
<path d="M12733 3245 c-86 -15 -190 -49 -258 -83 -401 -198 -494 -649 -196
-942 89 -87 158 -130 281 -176 477 -180 1040 38 1135 437 46 195 -6 387 -145
532 -184 194 -512 287 -817 232z m282 -311 c162 -42 265 -164 265 -314 0 -242
-268 -395 -525 -299 -87 32 -177 124 -200 204 -22 74 -16 166 14 229 73 150
265 228 446 180z"/>
<path d="M5740 2625 l0 -615 660 0 660 0 0 145 0 145 -455 0 -455 0 0 95 0 95
385 0 385 0 0 145 0 145 -385 0 -385 0 0 80 0 80 455 0 455 0 0 150 0 150
-660 0 -660 0 0 -615z"/>
<path d="M7110 3232 c0 -4 131 -166 290 -360 l290 -352 0 -255 0 -255 220 0
220 0 0 259 0 258 288 347 c158 191 289 352 290 357 2 5 -82 9 -202 9 -183 0
-208 -2 -223 -18 -10 -9 -100 -113 -201 -229 l-184 -213 -140 173 c-78 94
-163 198 -191 230 l-49 57 -204 0 c-112 0 -204 -3 -204 -8z"/>
<path d="M550 2620 l0 -610 205 0 205 0 0 273 0 272 143 -272 142 -273 190 0
190 0 132 263 132 262 0 -262 1 -263 205 0 205 0 0 610 0 610 -228 0 -227 0
-205 -421 -204 -421 -211 421 -210 421 -232 0 -233 0 0 -610z"/>
<path d="M4030 2620 l0 -610 205 0 205 0 2 365 3 365 372 -365 371 -365 206 0
206 0 0 610 0 610 -205 0 -205 0 0 -377 0 -378 -378 378 -377 377 -203 0 -202
0 0 -610z"/>
<path d="M8790 2620 l0 -610 544 0 c635 0 735 9 871 77 110 54 147 116 153
253 3 89 2 99 -25 150 -33 65 -94 110 -185 138 l-60 19 46 27 c90 53 133 147
124 275 -11 144 -98 229 -276 266 -53 12 -181 15 -629 15 l-563 0 0 -610z
m992 350 c20 -6 46 -22 58 -37 22 -28 27 -87 9 -126 -23 -50 -32 -52 -366 -55
l-313 -3 0 115 0 116 288 0 c166 0 303 -4 324 -10z m73 -450 c57 -13 85 -49
85 -110 0 -61 -28 -97 -85 -110 -22 -5 -185 -10 -362 -10 l-323 0 0 120 0 120
323 0 c177 0 340 -5 362 -10z"/>
<path d="M13820 2620 l0 -610 205 0 205 0 0 253 0 252 246 -252 246 -253 251
0 252 0 -328 328 c-180 180 -327 330 -327 334 0 4 136 125 303 269 166 144
309 268 317 275 12 12 -25 14 -240 14 l-255 0 -230 -213 -230 -214 -3 214 -2
213 -205 0 -205 0 0 -610z"/>
</g>
</svg>
