<?xml version="1.0" standalone="no"?>
<!DOCTYPE svg PUBLIC "-//W3C//DTD SVG 20010904//EN"
 "http://www.w3.org/TR/2001/REC-SVG-20010904/DTD/svg10.dtd">
<svg version="1.0" xmlns="http://www.w3.org/2000/svg"
 width="1279.000000pt" height="325.000000pt" viewBox="0 0 1279.000000 325.000000"
 preserveAspectRatio="xMidYMid meet">

<g transform="translate(0.000000,325.000000) scale(0.100000,-0.100000)"
fill="#000000" stroke="none">
<path d="M2230 2372 l0 -89 -92 -6 c-334 -22 -492 -144 -476 -366 13 -183 137
-261 441 -277 l127 -7 0 -114 c0 -127 4 -122 -78 -98 -66 20 -110 57 -118 101
l-6 34 -186 0 -185 0 6 -49 c8 -70 42 -142 85 -184 76 -73 236 -131 399 -144
l83 -6 0 -83 0 -84 85 0 85 0 0 84 0 83 88 7 c219 16 384 94 443 208 36 70 41
200 11 279 -6 14 -25 40 -42 58 -71 70 -169 99 -362 108 l-138 6 0 103 c0 57
4 105 8 108 4 2 39 -6 77 -19 72 -24 115 -60 115 -96 0 -18 8 -19 183 -19
l184 0 -9 60 c-4 33 -16 77 -27 98 -59 113 -225 191 -445 208 l-86 7 0 88 0
89 -85 0 -85 0 0 -88z m0 -432 l0 -111 -37 6 c-116 20 -163 48 -163 95 0 57
25 79 120 106 84 23 80 28 80 -96z m335 -339 c24 -14 31 -25 33 -58 4 -59 -31
-97 -115 -123 -36 -11 -69 -20 -74 -20 -5 0 -9 52 -9 116 l0 117 67 -7 c38 -4
81 -15 98 -25z"/>
<path d="M9185 2280 c-251 -45 -449 -188 -525 -380 -31 -76 -38 -205 -16 -289
70 -272 382 -458 736 -438 131 8 211 27 314 75 154 73 264 193 307 334 28 92
23 244 -10 330 -63 162 -234 299 -441 352 -76 20 -291 29 -365 16z m291 -294
c69 -32 106 -64 142 -126 24 -39 27 -56 27 -130 0 -74 -3 -91 -27 -130 -36
-62 -73 -94 -142 -126 -217 -99 -466 37 -466 256 0 135 89 242 235 281 59 16
167 4 231 -25z"/>
<path d="M10635 2280 c-251 -45 -449 -188 -525 -380 -31 -76 -38 -205 -16
-289 70 -272 382 -458 736 -438 131 8 211 27 314 75 154 73 264 193 307 334
28 92 23 244 -10 330 -63 162 -234 299 -441 352 -76 20 -291 29 -365 16z m291
-294 c69 -32 106 -64 142 -126 24 -39 27 -56 27 -130 0 -74 -3 -91 -27 -130
-36 -62 -73 -94 -142 -126 -217 -99 -466 37 -466 256 0 135 89 242 235 281 59
16 167 4 231 -25z"/>
<path d="M50 1735 l0 -535 180 0 180 0 0 238 0 237 123 -237 122 -238 165 1
165 0 109 227 c60 125 113 231 118 236 4 6 8 -97 8 -227 l0 -237 175 0 175 0
0 535 0 535 -198 0 -198 0 -174 -361 c-96 -198 -177 -362 -181 -364 -3 -2 -86
160 -184 361 l-178 364 -204 0 -203 0 0 -535z"/>
<path d="M3070 1735 l0 -535 180 0 180 0 0 322 0 323 323 -323 322 -322 178 0
177 0 0 535 0 535 -175 0 -175 0 0 -327 0 -328 -328 328 -327 327 -178 0 -177
0 0 -535z"/>
<path d="M4550 1735 l0 -535 570 0 570 0 0 130 0 130 -390 0 -390 0 0 80 0 80
330 0 330 0 0 125 0 125 -330 0 -330 0 0 70 0 70 390 0 390 0 0 130 0 130
-570 0 -570 0 0 -535z"/>
<path d="M5985 1958 l255 -311 0 -224 0 -223 190 0 190 0 0 223 0 223 172 210
c94 115 209 255 255 312 l85 102 -185 0 -184 0 -167 -196 c-92 -107 -171 -194
-175 -192 -5 2 -79 90 -165 196 l-157 192 -184 0 -185 0 255 -312z"/>
<path d="M7200 1735 l0 -535 473 0 c495 1 578 6 691 42 137 43 199 121 200
251 0 40 -6 89 -13 109 -17 52 -87 112 -160 138 l-62 23 38 21 c102 58 143
229 80 341 -28 50 -93 100 -160 122 -46 16 -108 18 -569 21 l-518 3 0 -536z
m862 305 c21 -6 44 -21 53 -33 23 -33 19 -91 -9 -124 l-24 -28 -276 -3 -276
-3 0 100 0 101 248 0 c139 0 263 -5 284 -10z m70 -390 c21 -6 44 -21 53 -33
17 -25 20 -86 4 -120 -23 -50 -32 -52 -356 -55 l-303 -3 0 110 0 111 283 0
c163 0 298 -4 319 -10z"/>
<path d="M11570 1735 l0 -535 180 0 180 0 2 218 3 219 210 -219 210 -218 220
0 220 0 -288 288 c-158 158 -287 290 -287 293 0 3 123 113 274 245 l273 239
-219 3 -219 2 -197 -182 -197 -182 -3 182 -2 182 -180 0 -180 0 0 -535z"/>
</g>
</svg>
